<svg width="70" height="28" viewBox="0 0 70 28" fill="none" xmlns="http://www.w3.org/2000/svg">
<path d="M29.519 12.8649C31.1041 14.2586 32.9305 15.5802 34.3856 17.1036C34.8537 17.5937 36.1426 18.1141 36.5657 18.6284M36.5657 18.6284C36.9893 19.1433 36.1013 18.8044 36.5657 18.6284ZM36.5657 18.6284C38.492 17.8985 40.4301 17.2993 42.3183 16.4741C48.0477 13.9702 53.8225 11.8642 59.2528 8.72408C60.946 7.745 62.7694 6.98143 64.5132 6.09411C65.6665 5.50724 66.719 4.78301 67.9873 4.44339C69.0483 4.15928 69.3036 3.97266 68.6202 2.90458C68.1459 2.16324 68.4209 1.27665 67.3684 1.04402C66.6021 0.874651 65.6753 1.2367 64.9492 1.40774C63.2098 1.81749 61.4588 2.1547 59.7873 2.80666C57.1117 3.85024 54.4491 4.88547 51.7842 5.95422C48.4353 7.29728 45.1512 8.90403 41.7276 10.0391C40.0146 10.607 38.0901 11.1444 36.6079 10.2909C35.2011 9.4808 34.6905 7.70513 32.8103 8.64014C31.1897 9.44607 29.8046 11.0076 28 11.6058" stroke="#F8673A" stroke-width="2" stroke-linecap="round" stroke-linejoin="round"/>
<path d="M54 10C52.7836 12.7716 51.0653 15.2836 49.7737 18C49.3652 18.8592 48.8632 18.9928 48.004 19.3056C47.274 19.5713 46.6984 20 45.9172 20C44.355 20 45.1826 18.6409 45.5474 17.7639C45.8936 16.9318 46.3175 16.1153 46.6304 15.375C47.0034 14.4925 47.9688 14.3266 48.6643 13.8611C50.1862 12.8427 52.0147 12.3816 53.0491 10.75" stroke="#F8673A" stroke-width="2" stroke-linecap="round" stroke-linejoin="round"/>
<path d="M1 27C8.06201 26.9186 15.5421 26.6409 22.3648 24.3867C24.7473 23.5995 27.5577 22.4447 29 20" stroke="#F8673A" stroke-width="2" stroke-linecap="round" stroke-linejoin="round"/>
<path d="M30 27C31.7136 26.3852 32.7756 24.4868 34 23" stroke="#F8673A" stroke-width="2" stroke-linecap="round" stroke-linejoin="round"/>
<path d="M15 20C19.386 19.1939 23.7379 18.5344 28 17" stroke="#F8673A" stroke-width="2" stroke-linecap="round" stroke-linejoin="round"/>
</svg>
