<svg width="263" height="82" viewBox="0 0 263 82" fill="none" xmlns="http://www.w3.org/2000/svg">
<path d="M121.206 4.22381C95.7147 -1.09278 73.3329 2.80803 53.6448 19.3493C37.8413 32.6267 40.6958 49.9197 56.2604 62.7089C74.3224 77.5502 102.997 79.1632 125.825 79.8007C167.675 80.9693 211.687 77.4806 247.758 56.3562C255.782 51.6571 265.309 44.2464 258.888 35.1806C254.768 29.3631 249.011 25.5296 242.304 22.3744C224.064 13.7929 206.347 9.76353 185.873 8.50936C165.662 7.27126 145.489 7.1103 125.602 11.0303C106.118 14.8709 86.9779 21.0056 68.3925 27.4666C52.0714 33.1404 35.9679 39.4526 20.0868 46.0709C13.3267 48.8881 7.43074 51.5248 2 55.9529" stroke="#F8673A" stroke-width="3" stroke-linecap="round" stroke-linejoin="round"/>
</svg>
