<svg width="366" height="86" viewBox="0 0 366 86" fill="none" xmlns="http://www.w3.org/2000/svg">
<path d="M2 18.2198C5.0659 19.6293 8.05266 21.1318 11 22.7253" stroke="#F8673A" stroke-width="3" stroke-linecap="round" stroke-linejoin="round"/>
<path d="M29 4.70329C30.4383 6.48533 33 8.72786 33 11.011" stroke="#F8673A" stroke-width="3" stroke-linecap="round" stroke-linejoin="round"/>
<path d="M114 2.9011C114.601 5.6766 115 8.21266 115 11.011" stroke="#F8673A" stroke-width="3" stroke-linecap="round" stroke-linejoin="round"/>
<path d="M207 4.70329C206.475 6.85763 205.764 8.9463 205 11.011" stroke="#F8673A" stroke-width="3" stroke-linecap="round" stroke-linejoin="round"/>
<path d="M278 2C275.915 5.15617 274.453 8.93682 271 11.011" stroke="#F8673A" stroke-width="3" stroke-linecap="round" stroke-linejoin="round"/>
<path d="M327 2.9011C325.09 5.10382 322.856 6.97905 321 9.20879" stroke="#F8673A" stroke-width="3" stroke-linecap="round" stroke-linejoin="round"/>
<path d="M364 9.20879C360.189 10.5097 345.869 13.0485 344 16.4176" stroke="#F8673A" stroke-width="3" stroke-linecap="round" stroke-linejoin="round"/>
<path d="M21 72.2857C24.2758 69.9099 28.0273 67.7556 31 65.0769" stroke="#F8673A" stroke-width="3" stroke-linecap="round" stroke-linejoin="round"/>
<path d="M100 84C98.6448 78.1657 97 71.9024 97 65.978" stroke="#F8673A" stroke-width="3" stroke-linecap="round" stroke-linejoin="round"/>
<path d="M178 79.4945C175.545 76.4853 169 69.9511 169 65.978" stroke="#F8673A" stroke-width="3" stroke-linecap="round" stroke-linejoin="round"/>
<path d="M226 76.7912C221.425 73.6108 217.172 70.2657 214 65.978" stroke="#F8673A" stroke-width="3" stroke-linecap="round" stroke-linejoin="round"/>
<path d="M280 69.5824C276.606 68.8874 266.52 66.8791 270 66.8791" stroke="#F8673A" stroke-width="3" stroke-linecap="round" stroke-linejoin="round"/>
<path d="M303 64.1758C301.431 62.7175 299.938 60.5436 298 59.6703" stroke="#F8673A" stroke-width="3" stroke-linecap="round" stroke-linejoin="round"/>
</svg>
